<?xml version="1.0" encoding="UTF-8"?>
<svg version="1.1" xmlns="http://www.w3.org/2000/svg" width="1578" height="1288" viewBox="0 0 1578 1288">
<path d="M0 0 C2.46725282 1.16234715 4.67397201 2.42358403 6.95141602 3.91967773 C7.760625 4.44843506 8.56983398 4.97719238 9.40356445 5.52197266 C10.25724609 6.08634033 11.11092773 6.65070801 11.99047852 7.23217773 C12.88025391 7.81523682 13.7700293 8.3982959 14.68676758 8.99902344 C20.54959835 12.84736196 26.37908743 16.74459951 32.20239258 20.65234375 C36.33135314 23.41031727 40.51608897 26.06078845 44.74047852 28.66967773 C52.40957119 33.41370602 59.95296195 38.3456035 67.49047852 43.29467773 C68.10922852 43.70092377 68.72797852 44.1071698 69.36547852 44.52572632 C72.52554912 46.60100803 75.68489658 48.67738787 78.84399414 50.75415039 C84.25275896 54.3090344 89.66734801 57.85500729 95.08380127 61.39816284 C96.68186486 62.44382502 98.27929902 63.49044896 99.87670898 64.53710938 C105.52258557 68.23126245 111.19426011 71.88028957 116.89135742 75.49487305 C121.53152745 78.45413545 126.13476284 81.46968387 130.74047852 84.48217773 C139.67954141 90.32046264 148.63200228 96.13723385 157.6003418 101.93041992 C168.14195004 108.74019157 178.67319463 115.56570627 189.19311523 122.40893555 C193.65408357 125.31005907 198.11888278 128.20501449 202.59008789 131.09033203 C208.4895918 134.89786011 214.375122 138.72582105 220.24438477 142.57983398 C220.83745926 142.9692366 221.43053375 143.35863922 222.0415802 143.75984192 C223.27299059 144.56839903 224.50440029 145.37695719 225.73580933 146.18551636 C226.35610016 146.59278961 226.97639099 147.00006287 227.61547852 147.41967773 C228.54603561 148.03070847 228.54603561 148.03070847 229.49539185 148.65408325 C239.32847791 155.10790709 249.21255845 161.47537363 259.1315918 167.79638672 C265.2112511 171.67604623 271.24057876 175.61712395 277.22045898 179.6484375 C282.12494538 182.94046159 287.11262988 186.09215509 292.11547852 189.23217773 C298.3501425 193.1466075 304.52588491 197.12787227 310.63549805 201.234375 C325.1717184 210.99243252 339.91590335 220.44467342 354.62231445 229.94360352 C356.60302346 231.22412558 358.58215255 232.50705276 360.56079102 233.79077148 C368.93336419 239.22052968 377.33070123 244.6102114 385.74047852 249.98217773 C396.84736776 257.07981245 407.89655954 264.26261498 418.92797852 271.47680664 C423.08945784 274.19492404 427.25886424 276.90079232 431.42797852 279.60717773 C439.26835139 284.70055865 447.10096876 289.8057889 454.92797852 294.91967773 C455.48899261 295.28616425 456.05000671 295.65265076 456.62802124 296.03024292 C463.02244413 300.2088444 469.40047499 304.4090017 475.74047852 308.66967773 C481.12036993 312.28168764 486.58609344 315.73378376 492.09472656 319.14550781 C498.96331218 323.41543368 505.72270849 327.8484815 512.48803711 332.27954102 C519.70691725 337.00216187 526.96509267 341.6596841 534.24047852 346.29467773 C542.96790078 351.85964845 551.61906321 357.52492946 560.21655273 363.28833008 C567.61501516 368.24576933 575.07823633 373.09645408 582.56811523 377.91430664 C586.02510327 380.13954172 589.47647413 382.37345013 592.92797852 384.60717773 C593.62616699 385.05891357 594.32435547 385.51064941 595.04370117 385.97607422 C605.74989532 392.90525948 616.44609429 399.8500613 627.11938477 406.82983398 C637.25198253 413.45378105 647.41002373 420.03341494 657.61547852 426.54467773 C664.72577391 431.08125179 671.80440839 435.65059807 678.79711914 440.36621094 C685.92647952 445.15116958 693.18976681 449.72918583 700.42919922 454.3449707 C706.67014962 458.32987802 712.86705927 462.36598448 719.00610352 466.50561523 C725.42018598 470.81036857 731.95983562 474.9168854 738.48535156 479.04980469 C744.50447497 482.86906131 750.47162789 486.75254306 756.38330078 490.73583984 C761.33240589 494.06609831 766.34828089 497.28581962 771.40258789 500.45410156 C772.82343075 501.35453385 774.22216603 502.28970596 775.61547852 503.23217773 C775.61547852 503.56217773 775.61547852 503.89217773 775.61547852 504.23217773 C255.53547852 504.23217773 -264.54452148 504.23217773 -800.38452148 504.23217773 C-797.31538885 501.77687163 -794.61010488 499.63999029 -791.33764648 497.60327148 C-790.58435059 497.13155518 -789.83105469 496.65983887 -789.05493164 496.17382812 C-788.25619629 495.6774585 -787.45746094 495.18108887 -786.63452148 494.66967773 C-784.91785241 493.59499226 -783.20171652 492.51945468 -781.48608398 491.44311523 C-780.62660156 490.90396484 -779.76711914 490.36481445 -778.8815918 489.80932617 C-775.23470741 487.5059557 -771.62206739 485.15138234 -768.00952148 482.79467773 C-760.91890883 478.18032391 -753.74037075 473.71860113 -746.5378418 469.28149414 C-737.30572921 463.58561937 -728.16552323 457.7485028 -719.02172852 451.91235352 C-714.92053387 449.29946502 -710.80955644 446.70216897 -706.69702148 444.10717773 C-705.92253662 443.61838135 -705.14805176 443.12958496 -704.35009766 442.62597656 C-701.25739583 440.67454806 -698.16421108 438.72388574 -695.07104492 436.77319336 C-685.83032621 430.94473162 -676.59945588 425.10133762 -667.38452148 419.23217773 C-658.17403762 413.36585247 -648.94753146 407.52544756 -639.71118164 401.69995117 C-636.5624801 399.71359297 -633.41486905 397.72551059 -630.26733398 395.73730469 C-628.67756763 394.73311313 -627.08772375 393.72904431 -625.49780273 392.72509766 C-621.60086407 390.26435657 -617.70470263 387.80240375 -613.81030273 385.33764648 C-606.01110348 380.40367909 -598.20039153 375.48947409 -590.3684082 370.60766602 C-581.71396113 365.21273898 -573.0870352 359.78522847 -564.53979492 354.22192383 C-556.9977942 349.31689734 -549.38350238 344.52773848 -541.76977539 339.73510742 C-539.44562985 338.27068163 -537.1236336 336.80291904 -534.80249023 335.33374023 C-526.0138766 329.77185945 -517.2069576 324.24026562 -508.38452148 318.73217773 C-494.46102384 310.03716308 -480.55967803 301.31442143 -466.79248047 292.37353516 C-459.16184976 287.42491835 -451.46651937 282.57999538 -443.76977539 277.73510742 C-441.44562985 276.27068163 -439.1236336 274.80291904 -436.80249023 273.33374023 C-426.98793678 267.12259267 -417.14786266 260.95338759 -407.29467773 254.80371094 C-401.08274048 250.9247255 -394.88374013 247.02623887 -388.69702148 243.10717773 C-382.01585153 238.87508149 -375.30246595 234.69792786 -368.57202148 230.54467773 C-361.71679956 226.31242551 -354.90267565 222.03044926 -348.13842773 217.65405273 C-340.54113668 212.74123549 -332.88970692 207.9121266 -325.25463867 203.05834961 C-322.47614219 201.29047332 -319.6995288 199.5196824 -316.92358398 197.74780273 C-306.36277718 191.00996416 -295.76754488 184.33059436 -285.1394043 177.69946289 C-268.49064168 167.31087278 -251.93550522 156.77559704 -235.38452148 146.23217773 C-218.50703478 135.48076731 -201.62541125 124.73722723 -184.64160156 114.15429688 C-178.96977716 110.61298424 -173.33315979 107.01743234 -167.69702148 103.41967773 C-160.35776705 98.73530444 -152.98542288 94.11075984 -145.57202148 89.54467773 C-138.55290214 85.21982485 -131.59345989 80.81759667 -124.68481445 76.31860352 C-118.76427455 72.46573043 -112.79834198 68.68817653 -106.8215332 64.92333984 C-100.66453084 61.04396823 -94.5219032 57.14250849 -88.38452148 53.23217773 C-79.16693079 47.36110598 -69.93291917 41.51660753 -60.68920898 35.68676758 C-58.39906984 34.24135985 -56.11032491 32.79377089 -53.82202148 31.34545898 C-43.87138261 25.04918828 -33.91040857 18.76915828 -23.90795898 12.55541992 C-19.62217609 9.89282853 -15.3454001 7.22911895 -11.14624023 4.43139648 C-10.24881104 3.84406738 -10.24881104 3.84406738 -9.33325195 3.24487305 C-7.83807316 2.26236523 -6.35476908 1.26184727 -4.87280273 0.25952148 C-2.38452148 -0.76782227 -2.38452148 -0.76782227 0 0 Z " fill="#FFFFFF" transform="translate(801.384521484375,0.767822265625)"/>
<path d="M0 0 C229.02 0 458.04 0 694 0 C691.92845543 4.14308913 690.44205901 5.51548854 686.875 8.3125 C682.63612697 11.67686178 678.54699541 15.1284304 674.55859375 18.78515625 C673 20 673 20 671 20 C671 20.66 671 21.32 671 22 C669.33984375 23.48828125 669.33984375 23.48828125 666.9375 25.3125 C662.42318503 28.83353834 658.06377452 32.48623313 653.75 36.25 C652.79516724 37.08156616 652.79516724 37.08156616 651.82104492 37.92993164 C650.52239488 39.06109803 649.22397405 40.19252763 647.92578125 41.32421875 C640.78047177 47.54194242 633.60926364 53.72360236 626.25 59.6875 C621.87492253 63.23745321 617.69450808 66.95563821 613.53125 70.75 C610.02200514 73.86932876 606.36837877 76.79749133 602.71875 79.75 C600.07852271 81.93501569 597.5327028 84.19171391 595 86.5 C590.80270966 90.32170863 586.46289769 93.91474189 582.05078125 97.484375 C578.47943859 100.42924654 574.9877745 103.45708127 571.5 106.5 C567.11789039 110.32318393 562.70940348 114.09154344 558.1875 117.75 C554.69764112 120.57487839 551.31989486 123.47717579 548 126.5 C544.68010514 129.52282421 541.30235888 132.42512161 537.8125 135.25 C531.37288007 140.46518515 525.14544597 145.91331752 518.89648438 151.35351562 C514.20215479 155.42902525 509.47101259 159.46183847 504.74707031 163.50292969 C502.96164376 165.03286759 501.17963855 166.56670801 499.3984375 168.1015625 C494.06449936 172.69377135 488.71957787 177.25644957 483.25 181.6875 C478.87492253 185.23745321 474.69450808 188.95563821 470.53125 192.75 C467.02200514 195.86932876 463.36837877 198.79749133 459.71875 201.75 C457.07852271 203.93501569 454.5327028 206.19171391 452 208.5 C448.68010514 211.52282421 445.30235888 214.42512161 441.8125 217.25 C436.67225775 221.41149373 431.67495873 225.71844788 426.6887207 230.06152344 C422.6530261 233.57419528 418.59279268 237.05406944 414.5 240.5 C409.82134802 244.44192437 405.18148938 248.42583536 400.5625 252.4375 C381.28507003 269.17503183 381.28507003 269.17503183 373.5625 275.4375 C368.46137849 279.57699625 363.5102254 283.87434084 358.56030273 288.19189453 C353.95245564 292.20132756 349.26479879 296.08530815 344.51171875 299.921875 C341.16347661 302.69211578 337.96278485 305.6113768 334.77734375 308.56640625 C333 310 333 310 331 310 C331 310.66 331 311.32 331 312 C329.51261765 313.35382149 327.95569449 314.63139886 326.375 315.875 C321.91058094 319.4476785 317.51938255 323.08029518 313.1875 326.8125 C312.60025146 327.3175708 312.01300293 327.8226416 311.40795898 328.34301758 C310.20587117 329.37736462 309.00413124 330.41211611 307.80273438 331.44726562 C304.85104102 333.98962339 301.89465714 336.52650126 298.9375 339.0625 C298.35693848 339.56056152 297.77637695 340.05862305 297.17822266 340.57177734 C293.32079317 343.87768382 289.44602505 347.16231664 285.5625 350.4375 C280.84128906 354.42005242 276.16168435 358.44796633 271.5 362.5 C266.31523805 367.00670368 261.1012509 371.47504417 255.84814453 375.90185547 C251.83575096 379.28504674 247.85264041 382.70105753 243.875 386.125 C239.71319863 389.706311 235.5173063 393.23158293 231.25 396.6875 C226.87492253 400.23745321 222.69450808 403.95563821 218.53125 407.75 C215.02200514 410.86932876 211.36837877 413.79749133 207.71875 416.75 C205.07852271 418.93501569 202.5327028 421.19171391 200 423.5 C195.70008209 427.41891252 191.24080453 431.09170869 186.71875 434.75 C184.07852271 436.93501569 181.5327028 439.19171391 179 441.5 C174.80270966 445.32170863 170.46289769 448.91474189 166.05078125 452.484375 C162.47943859 455.42924654 158.9877745 458.45708127 155.5 461.5 C151.11789039 465.32318393 146.70940348 469.09154344 142.1875 472.75 C138.69764112 475.57487839 135.31989486 478.47717579 132 481.5 C128.68010514 484.52282421 125.30235888 487.42512161 121.8125 490.25 C115.37288007 495.46518515 109.14544597 500.91331752 102.89648438 506.35351562 C99.92144811 508.93637409 96.9305594 511.50056914 93.9375 514.0625 C93.07741333 514.79883667 93.07741333 514.79883667 92.19995117 515.55004883 C91.04469482 516.53885203 89.88934024 517.52754049 88.73388672 518.51611328 C86.40529839 520.50895471 84.07829738 522.50364418 81.75146484 524.49853516 C80.58660944 525.49712183 79.42157121 526.49549528 78.25634766 527.49365234 C75.29911478 530.02712277 72.34452942 532.56357624 69.39453125 535.10546875 C64.06164678 539.69606553 58.71814055 544.25761398 53.25 548.6875 C49.7411601 551.53458501 46.34133363 554.45812552 43 557.5 C38.75429668 561.36459294 34.37039646 565.01164084 29.91015625 568.625 C26.78569825 571.17489324 23.70039166 573.76637187 20.625 576.375 C20.0899585 576.82834717 19.55491699 577.28169434 19.00366211 577.7487793 C16.1040503 580.2080204 13.21043116 582.67414252 10.3203125 585.14453125 C9.7226709 585.65387207 9.1250293 586.16321289 8.50927734 586.68798828 C7.35416475 587.67254303 6.20078455 588.65913463 5.04931641 589.64794922 C1.11259132 593 1.11259132 593 0 593 C0 397.31 0 201.62 0 0 Z " fill="#FFFFFF" transform="translate(884,695)"/>
<path d="M0 0 C228.69 0 457.38 0 693 0 C693 195.69 693 391.38 693 593 C684.09489051 586.32116788 684.09489051 586.32116788 680.1875 582.6875 C676.80627664 579.59917897 673.37335629 576.62932742 669.8125 573.75 C665.29059061 570.09153866 660.88221101 566.32307284 656.5 562.5 C652.21793708 558.76584832 647.91668165 555.07540896 643.5 551.5 C637.82911123 546.90447976 632.33249864 542.12019248 626.828125 537.328125 C623.21265713 534.18058421 619.57919443 531.0546347 615.9375 527.9375 C615.36410889 527.44660889 614.79071777 526.95571777 614.19995117 526.44995117 C613.04469482 525.46114797 611.88934024 524.47245951 610.73388672 523.48388672 C607.8210595 520.99104473 604.91068802 518.495339 602 516 C601.42314453 515.50564453 600.84628906 515.01128906 600.25195312 514.50195312 C597.32181007 511.99086964 594.39253004 509.47879132 591.46484375 506.96484375 C585.82578344 502.12423445 580.17786575 497.29506367 574.5 492.5 C568.22831051 487.2034411 561.99408929 481.86395577 555.76611328 476.51611328 C552.26505808 473.51064566 548.76111655 470.50854185 545.25683594 467.50683594 C542.29948748 464.97314792 539.34470321 462.4365735 536.39453125 459.89453125 C531.06164678 455.30393447 525.71814055 450.74238602 520.25 446.3125 C515.86848205 442.75732096 511.68289319 439.03230463 507.51171875 435.234375 C504.99848768 432.99865467 502.42688521 430.86622318 499.8125 428.75 C493.37451094 423.53613562 487.14836434 418.08958747 480.90087891 412.65087891 C477.90255563 410.04688944 474.89041638 407.45916083 471.875 404.875 C471.30193115 404.38370605 470.7288623 403.89241211 470.13842773 403.38623047 C466.74060805 400.47766218 463.3278621 397.5875512 459.90625 394.70703125 C455.49942568 390.99656832 451.13636915 387.25324921 446.875 383.375 C442.69113387 379.57454282 438.36377705 375.99486369 433.97265625 372.4375 C428.83990049 368.22877517 423.82654106 363.88093473 418.79833984 359.54833984 C415.8699783 357.02707065 412.93470651 354.51387757 410 352 C408.83329885 351.00004023 407.66663221 350.00004019 406.5 349 C405.63375 348.2575 405.63375 348.2575 404.75 347.5 C399.5 343 399.5 343 397.74926758 341.49926758 C396.58518023 340.50154805 395.42095544 339.50398886 394.2565918 338.5065918 C391.29930113 335.97301257 388.34461631 333.43649863 385.39453125 330.89453125 C380.06164678 326.30393447 374.71814055 321.74238602 369.25 317.3125 C364.86848205 313.75732096 360.68289319 310.03230463 356.51171875 306.234375 C353.99848768 303.99865467 351.42688521 301.86622318 348.8125 299.75 C343.67305572 295.58915231 338.67673848 291.28265511 333.69091797 286.94067383 C329.10956654 282.9535878 324.49289557 279.01214495 319.84863281 275.09863281 C315.83615915 271.71518136 311.85281439 268.29909223 307.875 264.875 C303.71319863 261.293689 299.5173063 257.76841707 295.25 254.3125 C290.87492253 250.76254679 286.69450808 247.04436179 282.53125 243.25 C279.9115519 240.92137947 277.2248469 238.70437053 274.5 236.5 C270.03723787 232.88967558 265.77280467 229.11572071 261.53125 225.25 C258.9115519 222.92137947 256.2248469 220.70437053 253.5 218.5 C249.9052235 215.5918662 246.41739372 212.61458668 243 209.5 C239.68010514 206.47717579 236.30235888 203.57487839 232.8125 200.75 C226.37451094 195.53613562 220.14836434 190.08958747 213.90087891 184.65087891 C210.90255616 182.0468899 207.89047534 179.45909133 204.875 176.875 C204.29830566 176.38080566 203.72161133 175.88661133 203.12744141 175.37744141 C198.75776693 171.63816235 194.36564973 167.92593997 189.96875 164.21875 C185.73694715 160.6427229 181.55307808 157.01354591 177.375 153.375 C172.1775703 148.84891048 166.9003437 144.44592075 161.54296875 140.109375 C158.10852621 137.26052865 154.82864204 134.25521806 151.53125 131.25 C148.9115519 128.92137947 146.2248469 126.70437053 143.5 124.5 C139.9052235 121.5918662 136.41739372 118.61458668 133 115.5 C129.68010514 112.47717579 126.30235888 109.57487839 122.8125 106.75 C116.37288007 101.53481485 110.14544597 96.08668248 103.89648438 90.64648438 C100.92144811 88.06362591 97.9305594 85.49943086 94.9375 82.9375 C94.07741333 82.20116333 94.07741333 82.20116333 93.19995117 81.44995117 C92.04469482 80.46114797 90.88934024 79.47245951 89.73388672 78.48388672 C87.40529839 76.49104529 85.07829738 74.49635582 82.75146484 72.50146484 C81.58660944 71.50287817 80.42157121 70.50450472 79.25634766 69.50634766 C76.29911478 66.97287723 73.34452942 64.43642376 70.39453125 61.89453125 C65.06164678 57.30393447 59.71814055 52.74238602 54.25 48.3125 C49.86992077 44.75848834 45.68571712 41.03463869 41.515625 37.23828125 C38.09640859 34.19602814 34.54574839 31.3313021 30.98828125 28.453125 C26.98493163 25.16671512 23.07000008 21.78206881 19.15283203 18.39379883 C14.77681437 14.62356978 10.29040211 11.02516174 5.6953125 7.5234375 C5.13585937 7.02070312 4.57640625 6.51796875 4 6 C4 5.34 4 4.68 4 4 C2.68 3.34 1.36 2.68 0 2 C0 1.34 0 0.68 0 0 Z " fill="#FFFFFF" transform="translate(1,695)"/>
</svg>
