<?xml version="1.0" encoding="UTF-8"?>
<!-- Henkel logo as compound path - combined from TRN-small-target.svg -->
<svg version="1.1" xmlns="http://www.w3.org/2000/svg" width="188" height="153.45" viewBox="0 0 188 153.45">
<path d="M95.476 0.091c0.294 0.138 0.557 0.289 0.828 0.467l0.292 0.191L96.904 0.953l0.321 0.211a246.378 246.378 0 0 1 2.087 1.388c0.492 0.329 0.991 0.644 1.494 0.955 0.914 0.565 1.812 1.153 2.71 1.742l0.223 0.147q0.565 0.371 1.129 0.742c0.644 0.424 1.289 0.846 1.935 1.268l0.571 0.374a171.916 171.916 0 0 0 2.027 1.306c0.553 0.353 1.101 0.712 1.65 1.071a757.719 757.719 0 0 0 3.2 2.079q1.884 1.217 3.764 2.44q0.797 0.518 1.596 1.034q1.054 0.68 2.103 1.369l0.214 0.141 0.44 0.289 0.224 0.147 0.224 0.147a312.499 312.499 0 0 0 3.531 2.281c0.724 0.462 1.443 0.932 2.155 1.412 0.584 0.392 1.179 0.768 1.775 1.142a84.35 84.35 0 0 1 2.206 1.43c1.732 1.163 3.488 2.289 5.241 3.42q0.354 0.229 0.707 0.458c0.998 0.647 1.998 1.289 3 1.929 1.323 0.846 2.64 1.701 3.954 2.561 0.496 0.324 0.992 0.646 1.489 0.969a1276.446 1276.446 0 0 1 3.002 1.957 211.708 211.708 0 0 1 2.277 1.506c0.641 0.43 1.292 0.842 1.948 1.248 0.818 0.509 1.624 1.037 2.43 1.565 0.86 0.563 1.725 1.118 2.591 1.67a161.313 161.313 0 0 1 3.095 2.025c0.882 0.591 1.771 1.169 2.663 1.743 0.412 0.265 0.823 0.531 1.234 0.797l0.252 0.163a963.232 963.232 0 0 1 3.821 2.485A390.297 390.297 0 0 0 173.823 50.909c0.847 0.541 1.69 1.085 2.524 1.647 0.849 0.57 1.715 1.115 2.577 1.665a105.676 105.676 0 0 1 2.213 1.449c0.764 0.513 1.543 1.002 2.321 1.495a92.57 92.57 0 0 1 2.132 1.392c0.59 0.397 1.187 0.78 1.789 1.158 0.169 0.107 0.336 0.219 0.502 0.331v0.119H0.119c0.366 -0.292 0.688 -0.547 1.078 -0.79l0.272 -0.17 0.288 -0.179q0.307 -0.192 0.613 -0.384l0.31 -0.195c0.434 -0.274 0.865 -0.555 1.295 -0.836 0.845 -0.55 1.7 -1.081 2.558 -1.61 1.1 -0.679 2.189 -1.374 3.278 -2.069 0.489 -0.311 0.978 -0.621 1.468 -0.93l0.279 -0.176q0.553 -0.349 1.106 -0.697A885.435 885.435 0 0 0 15.965 50.038a881.741 881.741 0 0 1 3.297 -2.089 2267.08 2267.08 0 0 0 1.693 -1.069q0.696 -0.44 1.392 -0.88c0.929 -0.588 1.86 -1.173 2.793 -1.755 1.031 -0.643 2.059 -1.289 3.077 -1.952 0.899 -0.584 1.806 -1.155 2.713 -1.726q0.415 -0.262 0.83 -0.524A608.439 608.439 0 0 1 34.907 38.065c1.659 -1.036 3.315 -2.075 4.955 -3.14 0.909 -0.589 1.826 -1.167 2.743 -1.744q0.415 -0.262 0.83 -0.524a664.076 664.076 0 0 1 3.516 -2.208q1.11 -0.693 2.216 -1.394a240.421 240.421 0 0 1 2.398 -1.497c0.817 -0.504 1.628 -1.014 2.434 -1.536 0.905 -0.585 1.817 -1.161 2.726 -1.739a816.454 816.454 0 0 0 0.992 -0.633 444.504 444.504 0 0 1 3.787 -2.389C63.488 20.025 65.46 18.769 67.432 17.513c2.011 -1.281 4.022 -2.561 6.045 -3.822 0.676 -0.422 1.347 -0.85 2.019 -1.279 0.874 -0.558 1.753 -1.109 2.636 -1.653A117.708 117.708 0 0 0 80.621 9.184c0.705 -0.459 1.416 -0.909 2.128 -1.358 0.734 -0.462 1.465 -0.927 2.197 -1.393a874.593 874.593 0 0 1 3.3 -2.09q0.409 -0.258 0.818 -0.517c1.185 -0.75 2.372 -1.498 3.564 -2.239 0.511 -0.317 1.02 -0.635 1.52 -0.968l0.216 -0.141a48.013 48.013 0 0 0 0.531 -0.356C95.191 0 95.191 0 95.476 0.091 M105.318 82.801h82.682c-0.247 0.494 -0.424 0.657 -0.849 0.99 -0.505 0.401 -0.992 0.812 -1.467 1.248C185.498 85.184 185.498 85.184 185.26 85.184v0.238c-0.198 0.177 -0.198 0.177 -0.484 0.395 -0.538 0.419 -1.057 0.855 -1.571 1.303l-0.23 0.2 -0.464 0.404c-0.851 0.741 -1.706 1.477 -2.582 2.188 -0.521 0.423 -1.019 0.866 -1.515 1.318 -0.418 0.372 -0.853 0.72 -1.288 1.072 -0.315 0.26 -0.618 0.529 -0.92 0.804 -0.5 0.455 -1.017 0.883 -1.543 1.309 -0.425 0.351 -0.841 0.712 -1.257 1.074 -0.522 0.455 -1.047 0.904 -1.586 1.34A27.521 27.521 0 0 0 170.606 97.872a27.521 27.521 0 0 1 -1.214 1.042c-0.767 0.621 -1.509 1.27 -2.254 1.919 -0.559 0.485 -1.123 0.966 -1.686 1.447q-0.319 0.274 -0.637 0.548c-0.635 0.547 -1.272 1.091 -1.924 1.619 -0.521 0.423 -1.019 0.866 -1.515 1.318 -0.418 0.372 -0.853 0.72 -1.288 1.072 -0.315 0.26 -0.618 0.529 -0.92 0.804a27.521 27.521 0 0 1 -1.214 1.042c-0.612 0.496 -1.208 1.009 -1.802 1.526A116.398 116.398 0 0 1 154.701 111.454a145.706 145.706 0 0 0 -1.66 1.422c-2.297 1.994 -2.297 1.994 -3.217 2.74 -0.608 0.493 -1.198 1.005 -1.787 1.519 -0.549 0.478 -1.107 0.94 -1.674 1.397 -0.399 0.33 -0.78 0.678 -1.16 1.03C144.991 119.734 144.991 119.734 144.753 119.734v0.238c-0.177 0.161 -0.363 0.313 -0.551 0.462a56.233 56.233 0 0 0 -1.571 1.303l-0.212 0.182 -0.429 0.37q-0.528 0.454 -1.056 0.907l-0.21 0.18c-0.46 0.394 -0.921 0.785 -1.384 1.175 -0.562 0.474 -1.12 0.954 -1.675 1.437a160.36 160.36 0 0 1 -1.865 1.597c-0.478 0.403 -0.953 0.81 -1.426 1.218a65.645 65.645 0 0 1 -1.504 1.258c-0.521 0.423 -1.019 0.866 -1.515 1.318 -0.418 0.372 -0.853 0.72 -1.288 1.072 -0.315 0.26 -0.618 0.529 -0.92 0.804 -0.512 0.467 -1.044 0.904 -1.582 1.34 -0.315 0.26 -0.618 0.529 -0.92 0.804 -0.5 0.455 -1.017 0.883 -1.543 1.309 -0.425 0.351 -0.841 0.712 -1.257 1.074 -0.522 0.455 -1.047 0.904 -1.586 1.34a27.521 27.521 0 0 0 -1.214 1.042 27.521 27.521 0 0 1 -1.214 1.042c-0.767 0.621 -1.509 1.27 -2.254 1.919a200.867 200.867 0 0 1 -1.067 0.918l-0.207 0.177 -0.413 0.353a1244.041 1244.041 0 0 0 -0.832 0.713l-0.416 0.357q-0.528 0.453 -1.056 0.907c-0.635 0.547 -1.272 1.09 -1.923 1.618A28.236 28.236 0 0 0 110.441 149.221c-0.506 0.46 -1.028 0.895 -1.56 1.325a75.891 75.891 0 0 0 -1.106 0.923l-0.193 0.164q-0.518 0.44 -1.035 0.881l-0.216 0.184a146.897 146.897 0 0 0 -0.412 0.353C105.451 153.45 105.451 153.45 105.318 153.45z M0.119 82.801h82.563v70.649c-1.061 -0.796 -1.061 -0.796 -1.526 -1.229a27.044 27.044 0 0 0 -1.236 -1.065c-0.539 -0.436 -1.064 -0.885 -1.586 -1.34 -0.51 -0.445 -1.023 -0.885 -1.549 -1.311 -0.676 -0.548 -1.331 -1.118 -1.986 -1.688a204.56 204.56 0 0 0 -1.297 -1.119l-0.207 -0.177 -0.413 -0.353q-0.521 -0.446 -1.041 -0.892l-0.208 -0.178q-0.524 -0.449 -1.047 -0.898A329.894 329.894 0 0 0 68.564 141.477a357.414 357.414 0 0 1 -2.232 -1.904q-0.626 -0.537 -1.252 -1.073q-0.528 -0.453 -1.056 -0.907c-0.635 -0.547 -1.272 -1.09 -1.923 -1.618 -0.522 -0.424 -1.021 -0.867 -1.518 -1.32 -0.3 -0.266 -0.606 -0.52 -0.917 -0.772 -0.767 -0.621 -1.509 -1.27 -2.253 -1.918 -0.357 -0.31 -0.716 -0.618 -1.075 -0.926l-0.207 -0.177c-0.405 -0.346 -0.811 -0.691 -1.219 -1.034 -0.525 -0.442 -1.045 -0.888 -1.552 -1.35 -0.498 -0.453 -1.014 -0.879 -1.537 -1.303 -0.612 -0.502 -1.209 -1.019 -1.808 -1.536q-0.523 -0.45 -1.048 -0.899l-0.417 -0.357 -0.208 -0.179 -0.834 -0.715 -0.416 -0.357q-0.529 -0.453 -1.056 -0.907c-0.635 -0.547 -1.272 -1.09 -1.923 -1.618 -0.522 -0.424 -1.021 -0.867 -1.518 -1.32 -0.3 -0.266 -0.606 -0.52 -0.917 -0.772 -0.612 -0.496 -1.207 -1.009 -1.801 -1.526a136.175 136.175 0 0 0 -1.649 -1.411c-0.478 -0.403 -0.953 -0.81 -1.427 -1.218a65.645 65.645 0 0 0 -1.504 -1.258c-0.521 -0.423 -1.019 -0.866 -1.515 -1.318 -0.312 -0.277 -0.632 -0.542 -0.957 -0.804 -0.532 -0.43 -1.04 -0.88 -1.545 -1.34 -0.312 -0.277 -0.632 -0.542 -0.957 -0.804a27.878 27.878 0 0 1 -1.251 -1.072 27.521 27.521 0 0 0 -1.214 -1.042c-0.767 -0.621 -1.509 -1.27 -2.253 -1.918 -0.357 -0.31 -0.716 -0.618 -1.075 -0.926l-0.208 -0.178c-0.521 -0.445 -1.044 -0.888 -1.568 -1.329 -0.504 -0.426 -1.003 -0.858 -1.5 -1.292a68.385 68.385 0 0 0 -1.886 -1.58c-0.409 -0.339 -0.8 -0.697 -1.193 -1.055 -0.312 -0.277 -0.632 -0.542 -0.957 -0.804a27.878 27.878 0 0 1 -1.251 -1.072 27.521 27.521 0 0 0 -1.214 -1.042c-0.767 -0.621 -1.509 -1.27 -2.254 -1.919a200.867 200.867 0 0 0 -1.067 -0.918L11.223 92.505l-0.413 -0.353a1244.041 1244.041 0 0 1 -0.832 -0.713l-0.416 -0.357q-0.528 -0.453 -1.056 -0.907c-0.635 -0.547 -1.272 -1.09 -1.923 -1.618 -0.522 -0.424 -1.02 -0.867 -1.517 -1.319 -0.407 -0.362 -0.83 -0.704 -1.254 -1.047 -0.477 -0.391 -0.943 -0.795 -1.41 -1.199 -0.521 -0.449 -1.056 -0.878 -1.603 -1.295L0.596 83.516v-0.238l-0.477 -0.238z" fill="#FFFFFF"/>
</svg>
