<?xml version="1.0" encoding="UTF-8"?>
<svg version="1.1" xmlns="http://www.w3.org/2000/svg" width="1573" height="231">
<path d="M0 0 C7.350986 3.88813446 14.2578387 8.34926892 21.1875 12.9375 C23.51421291 14.47090161 25.84276726 16.00148889 28.171875 17.53125 C28.75295517 17.91312973 29.33403534 18.29500946 29.932724 18.6884613 C35.23064199 22.16408425 40.57842867 25.55730045 45.9375 28.9375 C54.93631515 34.62222869 63.79514914 40.50433042 72.63574219 46.43023682 C79.78430805 51.21972589 86.96222763 55.93759933 94.28759766 60.45288086 C102.06554706 65.25171339 109.69648246 70.27649815 117.34765625 75.27392578 C120.13232136 77.08611119 122.92460137 78.88606903 125.71875 80.68359375 C126.64461914 81.28067139 127.57048828 81.87774902 128.52441406 82.49291992 C130.31631853 83.64809159 132.10989362 84.80067664 133.90527344 85.95043945 C134.70481445 86.46695068 135.50435547 86.98346191 136.328125 87.515625 C137.0387207 87.97227539 137.74931641 88.42892578 138.48144531 88.89941406 C138.98256836 89.26260742 139.48369141 89.62580078 140 90 C140 90.33 140 90.66 140 91 C46.94 91 -46.12 91 -142 91 C-138.92317953 87.92317953 -136.75583418 86.04722928 -133.16796875 83.85546875 C-132.21631836 83.26870361 -131.26466797 82.68193848 -130.28417969 82.07739258 C-129.26227539 81.45372803 -128.24037109 80.83006348 -127.1875 80.1875 C-118.79499422 75.01110509 -110.48219625 69.74013618 -102.25 64.3125 C-94.19389005 59.01211907 -86.04514832 53.91748927 -77.73144531 49.03051758 C-73.135642 46.32280219 -68.66852958 43.48455824 -64.24609375 40.50219727 C-60.52268556 38.01196568 -56.7295375 35.63388438 -52.9375 33.25 C-52.11531982 32.73195801 -51.29313965 32.21391602 -50.44604492 31.68017578 C-42.64301151 26.76707114 -34.82390327 21.87977737 -27 17 C-17.9756346 11.3709615 -8.95924025 5.73239525 0 0 Z " fill="#FFFFFF" transform="translate(143,0)"/>
<path d="M0 0 C41.25 0 82.5 0 125 0 C117.0135794 7.9864206 108.75834744 15.48168762 99.96875 22.56640625 C94.50894979 27.04200563 89.22073691 31.71834734 83.89648438 36.35351562 C79.20215479 40.42902525 74.47101259 44.46183847 69.74707031 48.50292969 C67.96164376 50.03286759 66.17963855 51.56670801 64.3984375 53.1015625 C59.06449936 57.69377135 53.71957787 62.25644957 48.25 66.6875 C43.77892076 70.31572483 39.4930982 74.11089575 35.23046875 77.98046875 C27.47775629 85 27.47775629 85 25 85 C25 85.66 25 86.32 25 87 C23.26953125 88.55859375 23.26953125 88.55859375 20.8125 90.4375 C15.83296855 94.30571971 11.03679484 98.34350998 6.29223633 102.49389648 C2.21841303 106 2.21841303 106 0 106 C0 71.02 0 36.04 0 0 Z " fill="#FFFFFF" transform="translate(158,125)"/>
<path d="M0 0 C41.25 0 82.5 0 125 0 C125 34.98 125 69.96 125 106 C116.48650863 101.74325431 109.55319949 94.64588452 102.5546875 88.2734375 C97.47344369 83.75159668 92.24565495 79.28397941 86.6796875 75.3671875 C86.12539062 74.91601562 85.57109375 74.46484375 85 74 C85 73.34 85 72.68 85 72 C84.47277344 71.78214844 83.94554688 71.56429687 83.40234375 71.33984375 C80.09754219 69.496678 77.39116679 67.04773042 74.5625 64.5625 C73.30374001 63.46964352 72.04461752 62.37720446 70.78515625 61.28515625 C70.15109863 60.73359863 69.51704102 60.18204102 68.86376953 59.61376953 C66.09660519 57.21778364 63.2994191 54.85813136 60.5 52.5 C56.00544058 48.70532331 51.52735226 44.89208635 47.0625 41.0625 C46.48330811 40.56580811 45.90411621 40.06911621 45.30737305 39.55737305 C42.33243959 37.00489582 39.3602292 34.44930018 36.390625 31.890625 C31.08070584 27.32060078 25.76175692 22.77929999 20.3125 18.375 C13.20981809 12.60669768 6.46900648 6.46900648 0 0 Z " fill="#FFFFFF" transform="translate(0,125)"/>
<path d="M0 0 C7.77392297 -0.06310761 15.546905 -0.12318926 23.32086182 -0.15525055 C26.94188526 -0.17101835 30.56269413 -0.19204922 34.18359375 -0.22631836 C37.67845884 -0.25918345 41.17311732 -0.27690942 44.66812515 -0.28463173 C46.63435945 -0.29278089 48.60051194 -0.31615582 50.56661987 -0.33988953 C59.05819621 -0.34146602 67.07214988 -0.0277178 74 5.3125 C78.86924949 11.855554 78.34108372 19.00620246 78.31567383 26.83056641 C78.31251886 28.86285326 78.33599443 30.89367433 78.36132812 32.92578125 C78.3648165 39.96531872 78.21748263 45.67305575 75 52 C68.04008986 58.95991014 59.1658662 59.03377569 49.83764648 59.11352539 C47.51545623 59.11327832 45.19326156 59.10787047 42.87109375 59.09765625 C41.7792981 59.09664917 40.68750244 59.09564209 39.56262207 59.09460449 C35.52090388 59.08940966 31.47920078 59.07544866 27.4375 59.0625 C18.383125 59.041875 9.32875 59.02125 0 59 C0 39.53 0 20.06 0 0 Z M19 15 C19 24.24 19 33.48 19 43 C23.89446367 43.11501351 28.78421485 43.2144671 33.67895508 43.2746582 C35.34252839 43.29975347 37.00599196 43.33383796 38.66918945 43.37719727 C41.06489153 43.4380746 43.45913251 43.46625769 45.85546875 43.48828125 C46.5952446 43.51408768 47.33502045 43.5398941 48.09721375 43.56648254 C52.01758321 43.56859656 53.8192128 43.13764362 56.97192383 40.73730469 C58.98335055 38.02247184 59.62693349 37.00264923 59.59375 33.71484375 C59.58988281 32.54791992 59.58988281 32.54791992 59.5859375 31.35742188 C59.55757812 30.55884766 59.52921875 29.76027344 59.5 28.9375 C59.50257812 28.13505859 59.50515625 27.33261719 59.5078125 26.50585938 C59.44977995 23.00939808 59.33118143 20.61518877 57.65625 17.50390625 C54.08952636 14.26525389 49.78859497 14.87031493 45.26953125 14.90234375 C44.14390022 14.90446617 44.14390022 14.90446617 42.99552917 14.90663147 C40.6011454 14.9122244 38.20685547 14.92477556 35.8125 14.9375 C34.18815239 14.94251592 32.56380332 14.94707866 30.93945312 14.95117188 C26.95957025 14.9613402 22.97989007 14.98091688 19 15 Z " fill="#FFFFFF" transform="translate(987,80)"/>
<path d="M0 0 C28 0 28 0 34.0625 5.125 C35.07340879 6.80196565 36.08360296 8.48202575 36.99267578 10.21630859 C38.79057002 13.39987992 41.18704422 16.11877256 43.5 18.9375 C48.73540491 25.57033681 53.84880465 32.30344604 59 39 C59.33 26.13 59.66 13.26 60 0 C66.27 0 72.54 0 79 0 C79 19.47 79 38.94 79 59 C69.76 59 60.52 59 51 59 C42.06569343 48.94890511 42.06569343 48.94890511 38.0625 43.625 C34.1981164 38.52211868 30.21022183 33.54619424 26.10546875 28.6328125 C23.61351796 25.51671819 21.3191231 22.24677234 19 19 C18.67 32.2 18.34 45.4 18 59 C12.06 59 6.12 59 0 59 C0 39.53 0 20.06 0 0 Z " fill="#FFFFFF" transform="translate(551,80)"/>
<path d="M0 0 C1.51938171 -0.00786278 1.51938171 -0.00786278 3.06945801 -0.0158844 C5.20075569 -0.02227813 7.33208879 -0.02100215 9.46337891 -0.01245117 C12.70930178 -0.00393105 15.95346881 -0.03275731 19.19921875 -0.06445312 C21.27864531 -0.06606522 23.35807496 -0.06548744 25.4375 -0.0625 C26.39918091 -0.07373398 27.36086182 -0.08496796 28.35168457 -0.09654236 C34.46873341 -0.03379701 39.1104922 0.94637148 44.21875 4.43359375 C48.1037165 8.69452475 47.85052936 13.91028409 48.21875 19.43359375 C41.94875 19.43359375 35.67875 19.43359375 29.21875 19.43359375 C28.72375 17.45359375 28.72375 17.45359375 28.21875 15.43359375 C25.2967731 13.9726053 22.71981525 14.32224474 19.4609375 14.3359375 C18.79788605 14.33735245 18.13483459 14.3387674 17.45169067 14.34022522 C15.33233137 14.34582621 13.21307741 14.35837875 11.09375 14.37109375 C9.65755361 14.37610863 8.22135556 14.38067156 6.78515625 14.38476562 C3.26298655 14.39579593 -0.25912145 14.41306116 -3.78125 14.43359375 C-3.78125 16.08359375 -3.78125 17.73359375 -3.78125 19.43359375 C0.42715144 21.47232368 4.23551011 21.72793659 8.828125 21.7421875 C10.3203162 21.76735946 11.81250361 21.7927573 13.3046875 21.81835938 C15.63247583 21.84697972 17.96019799 21.87102443 20.28808594 21.88989258 C39.54217242 22.07605087 39.54217242 22.07605087 46.65625 27.18359375 C50.84906952 33.22125385 50.87834665 40.32460766 50.21875 47.43359375 C49.29887959 51.63098564 47.70610723 54.0309943 44.34375 56.80859375 C40.05999035 59.03614877 36.2488317 59.55387035 31.46362305 59.59472656 C30.09145882 59.60913788 30.09145882 59.60913788 28.6915741 59.62384033 C27.71440933 59.62809021 26.73724457 59.63234009 25.73046875 59.63671875 C24.71330276 59.64241882 23.69613678 59.6481189 22.64814758 59.6539917 C20.49892206 59.6634226 18.3496822 59.66996808 16.20043945 59.67382812 C12.92828911 59.68352842 9.65676858 59.71456824 6.38476562 59.74609375 C4.29167038 59.75262506 2.19857066 59.75787503 0.10546875 59.76171875 C-0.86562332 59.77406555 -1.83671539 59.78641235 -2.8372345 59.7991333 C-9.20652149 59.77845143 -15.43690879 59.37881681 -20.45478821 54.95977783 C-22.12205785 53.04147124 -22.47353571 51.53889782 -22.96875 49.05859375 C-23.12730469 48.30835938 -23.28585937 47.558125 -23.44921875 46.78515625 C-23.78125 44.43359375 -23.78125 44.43359375 -23.78125 39.43359375 C-17.51125 39.43359375 -11.24125 39.43359375 -4.78125 39.43359375 C-4.12125 41.08359375 -3.46125 42.73359375 -2.78125 44.43359375 C7.77875 44.43359375 18.33875 44.43359375 29.21875 44.43359375 C29.54875 42.78359375 29.87875 41.13359375 30.21875 39.43359375 C26.52587981 37.09683598 23.26577759 37.15183772 18.9609375 37.08984375 C18.25784454 37.07522095 17.55475159 37.06059814 16.83035278 37.04553223 C14.58487649 36.9991716 12.33948282 36.96494526 10.09375 36.93359375 C-12.41886211 36.6147877 -12.41886211 36.6147877 -19.78125 32.93359375 C-23.97218458 27.69492552 -24.01032811 21.17207515 -23.65625 14.68359375 C-23.06752188 10.00022844 -22.16333878 6.90240276 -18.78125 3.43359375 C-12.41110225 0.45015776 -6.97445563 -0.02129031 0 0 Z " fill="#FFFFFF" transform="translate(1522.78125,79.56640625)"/>
<path d="M0 0 C0.91815491 -0.00960754 1.83630981 -0.01921509 2.7822876 -0.02911377 C4.26822418 -0.03548859 4.26822418 -0.03548859 5.78417969 -0.04199219 C6.80654724 -0.04769226 7.82891479 -0.05339233 8.88226318 -0.05926514 C11.04763759 -0.06871515 13.21302637 -0.07524912 15.37841797 -0.07910156 C18.67929452 -0.08878865 21.97954352 -0.11980485 25.28027344 -0.15136719 C27.3857385 -0.1578993 29.491208 -0.16314895 31.59667969 -0.16699219 C32.57920715 -0.17933899 33.56173462 -0.19168579 34.57403564 -0.20440674 C41.43909605 -0.18227145 46.42310216 0.60706752 51.83105469 5.16113281 C55.54985898 9.73812272 54.45605469 12.73294849 54.45605469 19.16113281 C48.18605469 19.16113281 41.91605469 19.16113281 35.45605469 19.16113281 C34.96105469 17.18113281 34.96105469 17.18113281 34.45605469 15.16113281 C31.71080917 13.78851005 29.49386174 14.03144472 26.42480469 14.02832031 C25.22210937 14.02703125 24.01941406 14.02574219 22.78027344 14.02441406 C21.51828125 14.02828125 20.25628906 14.03214844 18.95605469 14.03613281 C17.6940625 14.03226563 16.43207031 14.02839844 15.13183594 14.02441406 C13.32779297 14.02634766 13.32779297 14.02634766 11.48730469 14.02832031 C10.37935547 14.02944824 9.27140625 14.03057617 8.12988281 14.03173828 C5.48286953 13.97961813 5.48286953 13.97961813 3.45605469 15.16113281 C3.45605469 16.81113281 3.45605469 18.46113281 3.45605469 20.16113281 C6.97680362 21.33471579 10.20380987 21.35255398 13.87011719 21.40722656 C15.36882031 21.4401941 16.86751808 21.4734052 18.36621094 21.50683594 C20.71594193 21.55398691 23.065656 21.59837354 25.41552734 21.63793945 C45.95423959 22.00043839 45.95423959 22.00043839 52.39355469 25.97363281 C56.6060204 30.44139947 56.79601172 35.18438876 56.76855469 41.09863281 C56.78466797 41.78892578 56.80078125 42.47921875 56.81738281 43.19042969 C56.82186965 47.92404136 56.00035393 51.17148048 53.45605469 55.16113281 C48.66906453 58.11480759 44.37862944 59.27489012 38.81445312 59.32226562 C37.4421756 59.33667694 37.4421756 59.33667694 36.04217529 59.35137939 C35.05984924 59.35562927 34.07752319 59.35987915 33.06542969 59.36425781 C31.53755829 59.37280792 31.53755829 59.37280792 29.9788208 59.38153076 C27.82361893 59.39097165 25.66840269 59.39751112 23.51318359 59.40136719 C20.23216237 59.41105572 16.95177227 59.44208121 13.67089844 59.47363281 C11.57324589 59.48016506 9.47558888 59.48541466 7.37792969 59.48925781 C6.40370056 59.50160461 5.42947144 59.51395142 4.42572021 59.52667236 C-2.54243815 59.50412463 -8.41018538 58.73242301 -13.98144531 54.16113281 C-17.51796541 49.63438708 -16.61501094 44.63318586 -16.54394531 39.16113281 C-10.27394531 39.16113281 -4.00394531 39.16113281 2.45605469 39.16113281 C2.78605469 41.14113281 3.11605469 43.12113281 3.45605469 45.16113281 C7.81020713 45.19031915 12.16433417 45.20799426 16.51855469 45.22363281 C17.74767578 45.23201172 18.97679687 45.24039063 20.24316406 45.24902344 C26.08391606 45.2647667 31.70802485 45.24582789 37.45605469 44.16113281 C37.45605469 42.18113281 37.45605469 40.20113281 37.45605469 38.16113281 C32.92452498 37.29380213 28.5781679 37.00030509 23.96777344 36.91503906 C22.52440815 36.88209402 21.08104892 36.84888248 19.63769531 36.81542969 C17.39335329 36.76819841 15.14903465 36.72372902 12.90454102 36.68432617 C-7.90894527 36.30207035 -7.90894527 36.30207035 -13.54394531 31.72363281 C-16.85427694 27.48227042 -16.78611268 23.52042565 -16.85644531 18.34863281 C-16.89995117 17.2996582 -16.89995117 17.2996582 -16.94433594 16.22949219 C-17.00685594 11.0884245 -15.90579882 8.24688909 -12.54394531 4.16113281 C-8.44682037 1.26316639 -4.99037341 0.04221426 0 0 Z " fill="#FFFFFF" transform="translate(1174.5439453125,79.8388671875)"/>
<path d="M0 0 C29 0 29 0 35 5.5 C36.22802734 7.39208984 36.22802734 7.39208984 36.9609375 9.0859375 C39.19936461 13.65769918 42.33832839 17.26948138 45.625 21.125 C50.71081062 27.23433 55.30747809 33.54778238 60 40 C60.33 26.8 60.66 13.6 61 0 C66.94 0 72.88 0 79 0 C79 19.14 79 38.28 79 58 C69.43 58 59.86 58 50 58 C47.69 55.03 45.38 52.06 43 49 C41.25184709 46.76933667 39.50251468 44.53972367 37.75 42.3125 C36.80986396 41.11721257 35.86976086 39.92189923 34.9296875 38.7265625 C34.45241211 38.11973633 33.97513672 37.51291016 33.48339844 36.88769531 C31.94828053 34.9341845 30.41530102 32.97901154 28.8828125 31.0234375 C28.37911133 30.38108154 27.87541016 29.73872559 27.35644531 29.0769043 C26.38393135 27.83658038 25.41190991 26.59587009 24.44042969 25.35473633 C22.3258702 22.58595683 22.3258702 22.58595683 20 20 C19.67 32.54 19.34 45.08 19 58 C12.73 58 6.46 58 0 58 C0 38.86 0 19.72 0 0 Z " fill="#FFFFFF" transform="translate(896,80)"/>
<path d="M0 0 C7.56515014 -0.06302347 15.12934181 -0.12311469 22.69452667 -0.15525055 C26.21793423 -0.17105002 29.741123 -0.19214064 33.2644043 -0.22631836 C37.31300905 -0.26534335 41.36138439 -0.27974501 45.41015625 -0.29296875 C46.66458023 -0.30845261 47.91900421 -0.32393646 49.21144104 -0.33988953 C56.85722262 -0.34135687 62.34952399 -0.07408506 68.375 5 C71.76187632 9.16846316 71.21758189 13.77725243 71.25 18.875 C71.270625 19.67808594 71.29125 20.48117188 71.3125 21.30859375 C71.34364082 26.03421381 71.10338918 29.18602171 68 33 C67.01 33.66 66.02 34.32 65 35 C65.804375 35.763125 66.60875 36.52625 67.4375 37.3125 C71.44225233 41.51260611 71.12857518 45.20209041 71.0625 50.6875 C71.041875 53.100625 71.02125 55.51375 71 58 C65.06 58 59.12 58 53 58 C52.67 53.71 52.34 49.42 52 45 C48.2358787 44.05896967 45.12566576 43.80210377 41.265625 43.68359375 C39.97011719 43.64169922 38.67460938 43.59980469 37.33984375 43.55664062 C35.97656524 43.51683329 34.61328394 43.47712094 33.25 43.4375 C31.87108125 43.39427726 30.49217474 43.35066179 29.11328125 43.30664062 C25.74230694 43.20056101 22.37116677 43.09977635 19 43 C19 47.95 19 52.9 19 58 C12.73 58 6.46 58 0 58 C0 38.86 0 19.72 0 0 Z M19 15 C19 19.62 19 24.24 19 29 C23.03867656 29.04603938 27.07668001 29.08582568 31.11547852 29.10986328 C32.48790583 29.11988926 33.86031195 29.13351356 35.23266602 29.15087891 C37.21100527 29.17527627 39.18950367 29.18544484 41.16796875 29.1953125 C42.95110474 29.21102295 42.95110474 29.21102295 44.77026367 29.22705078 C47.94736386 29.00370033 50.14343455 28.36116639 53 27 C53 23.7 53 20.4 53 17 C48.91979559 15.0557641 45.6662283 14.76505526 41.16796875 14.8046875 C39.22954102 14.81435547 39.22954102 14.81435547 37.25195312 14.82421875 C35.8971327 14.84092673 34.54231499 14.85785658 33.1875 14.875 C31.81315749 14.88503997 30.43880797 14.89416404 29.06445312 14.90234375 C25.7095601 14.92588686 22.35475766 14.96175704 19 15 Z " fill="#FFFFFF" transform="translate(1312,80)"/>
<path d="M0 0 C7.56515014 -0.06302347 15.12934181 -0.12311469 22.69452667 -0.15525055 C26.21793423 -0.17105002 29.741123 -0.19214064 33.2644043 -0.22631836 C37.31300905 -0.26534335 41.36138439 -0.27974501 45.41015625 -0.29296875 C46.66458023 -0.30845261 47.91900421 -0.32393646 49.21144104 -0.33988953 C56.40985132 -0.34127101 61.99118025 -0.17940877 67.8125 4.4375 C71.34762517 9.08898048 71.36583044 13.19904194 71.375 18.875 C71.39949219 19.66519531 71.42398438 20.45539063 71.44921875 21.26953125 C71.47609979 26.65469958 70.59169127 29.74070812 67 34 C66.01 34.495 66.01 34.495 65 35 C65.804375 35.928125 66.60875 36.85625 67.4375 37.8125 C72.50869826 43.66388261 71.06765952 50.62511269 71 58 C65.06 58 59.12 58 53 58 C52.57682292 54.94010417 52.15364583 51.88020833 51.73046875 48.8203125 C51.25334259 45.68761154 51.25334259 45.68761154 48 44 C44.80009946 43.63000663 44.80009946 43.63000663 41.14453125 43.5859375 C40.48289474 43.56657135 39.82125824 43.5472052 39.13957214 43.5272522 C37.03067836 43.46757313 34.92172963 43.42111913 32.8125 43.375 C31.38083585 43.33680934 29.94919441 43.29775697 28.51757812 43.2578125 C25.01192688 43.16188227 21.50610555 43.07780803 18 43 C18.16749756 43.60231445 18.33499512 44.20462891 18.50756836 44.82519531 C19.48284354 49.1324592 18.46500115 53.65998929 18 58 C12.06 58 6.12 58 0 58 C0 38.86 0 19.72 0 0 Z M18 15 C18 19.62 18 24.24 18 29 C22.03867656 29.04603938 26.07668001 29.08582568 30.11547852 29.10986328 C31.48790583 29.11988926 32.86031195 29.13351356 34.23266602 29.15087891 C36.21100527 29.17527627 38.18950367 29.18544484 40.16796875 29.1953125 C41.95110474 29.21102295 41.95110474 29.21102295 43.77026367 29.22705078 C47.18091918 28.98728136 50.48598763 28.51401237 53 26 C53.51306187 21.93167569 53.51306187 21.93167569 53 18 C48.98524927 14.91573065 45.9340157 14.64339554 40.94921875 14.70703125 C40.29041214 14.71127609 39.63160553 14.71552094 38.95283508 14.71989441 C36.86396115 14.73658804 34.77607861 14.77421942 32.6875 14.8125 C31.26498797 14.82755903 29.8424607 14.84124531 28.41992188 14.85351562 C24.9459323 14.88390037 21.47406594 14.9426301 18 15 Z " fill="#FFFFFF" transform="translate(437,80)"/>
<path d="M0 0 C21.12 0 42.24 0 64 0 C64 4.62 64 9.24 64 14 C48.82 14 33.64 14 18 14 C18 16.97 18 19.94 18 23 C32.19 23 46.38 23 61 23 C61 27.29 61 31.58 61 36 C46.81 36 32.62 36 18 36 C18 38.64 18 41.28 18 44 C33.51 44 49.02 44 65 44 C65 48.95 65 53.9 65 59 C43.55 59 22.1 59 0 59 C0 39.53 0 20.06 0 0 Z " fill="#FFFFFF" transform="translate(1426,80)"/>
<path d="M0 0 C5.94 0 11.88 0 18 0 C18.03738281 2.61292969 18.07476563 5.22585937 18.11328125 7.91796875 C18.15953039 10.45654536 18.21075164 12.9949765 18.26245117 15.53344727 C18.29564654 17.29377355 18.32369524 19.05420488 18.34643555 20.81469727 C18.3800812 23.34957525 18.4324006 25.88349523 18.48828125 28.41796875 C18.49467117 29.20149216 18.5010611 29.98501556 18.50764465 30.7922821 C18.6290668 35.33401392 19.14103214 38.40482285 22 42 C26.29737814 43.61348447 31.32042539 43.18376061 35.875 43.1875 C36.65230469 43.19974609 37.42960937 43.21199219 38.23046875 43.22460938 C43.09762711 43.23687952 47.51844191 43.09177583 52 41 C53.89465641 36.03049289 54.26381793 31.38973549 54.16015625 26.1328125 C54.15495468 25.41261932 54.14975311 24.69242615 54.14439392 23.95040894 C54.12673529 21.67505691 54.09554698 19.40017624 54.0625 17.125 C54.03488569 14.82844956 54.01022161 12.53196007 53.99131775 10.23532104 C53.97904811 8.81186211 53.96143219 7.38843741 53.93800354 5.96511841 C53.92106163 4.31003663 53.95536481 2.65456653 54 1 C55 0 55 0 56.76586914 -0.11352539 C57.51473389 -0.10828857 58.26359863 -0.10305176 59.03515625 -0.09765625 C59.84404297 -0.09443359 60.65292969 -0.09121094 61.48632812 -0.08789062 C62.33646484 -0.07951172 63.18660156 -0.07113281 64.0625 -0.0625 C64.91650391 -0.05798828 65.77050781 -0.05347656 66.65039062 -0.04882812 C68.76695663 -0.03700373 70.88348685 -0.01906769 73 0 C73.04960464 5.99567472 73.08581647 11.99122875 73.10986328 17.98706055 C73.11989285 20.02484215 73.13351978 22.06260946 73.15087891 24.1003418 C73.17526127 27.0369826 73.18651377 29.97343235 73.1953125 32.91015625 C73.20563507 33.81459976 73.21595764 34.71904327 73.22659302 35.65089417 C73.22776981 42.35321627 72.62735164 47.51110926 68.875 53.25 C62.84799275 59.01496346 56.07465606 59.46037279 48.12890625 59.43359375 C46.74625832 59.44145653 46.74625832 59.44145653 45.3356781 59.44947815 C43.39689129 59.45586765 41.45806556 59.45460144 39.51928711 59.44604492 C36.57399631 59.43753322 33.63064676 59.46634214 30.68554688 59.49804688 C28.79166724 59.49965928 26.89778421 59.4990806 25.00390625 59.49609375 C23.70036949 59.51294472 23.70036949 59.51294472 22.37049866 59.53013611 C15.74621923 59.45566019 9.40920643 58.1031951 4.37110901 53.51731873 C0.98463411 49.61535585 -0.12739121 46.49779325 -0.11352539 41.43676758 C-0.11344986 40.51603958 -0.11337433 39.59531158 -0.11329651 38.64668274 C-0.10813522 37.65597275 -0.10297394 36.66526276 -0.09765625 35.64453125 C-0.0962413 34.62775803 -0.09482635 33.6109848 -0.09336853 32.56340027 C-0.08776707 29.31307036 -0.07521432 26.06280912 -0.0625 22.8125 C-0.05748519 20.61002704 -0.05292225 18.40755299 -0.04882812 16.20507812 C-0.03779716 10.80335893 -0.02053154 5.40169111 0 0 Z " fill="#FFFFFF" transform="translate(1075,80)"/>
<path d="M0 0 C18.2254064 -2.2137106 18.2254064 -2.2137106 24.12304688 1.24511719 C27.70733177 4.41493266 30.36011397 8.21134542 32.89257812 12.24707031 C34.36349273 14.57536988 36.04793684 16.71228672 37.75 18.875 C38.86375 20.421875 38.86375 20.421875 40 22 C47.85725607 14.58174964 47.85725607 14.58174964 54.17285156 5.94189453 C55.61753979 3.56411262 56.8770702 1.80899611 59 0 C63.00224098 -0.97470047 66.78629747 -0.76183809 70.875 -0.5 C72.47988281 -0.44585937 72.47988281 -0.44585937 74.1171875 -0.390625 C76.7484998 -0.29664956 79.37237515 -0.16545954 82 0 C79.51662532 3.86736776 76.94460594 7.32718962 73.8125 10.6875 C69.77724276 15.09260078 65.97479665 19.62534651 62.28125 24.3203125 C60 27 60 27 57.46875 29.1796875 C51.92686114 34.10775956 50.4938626 37.94638375 50.02929688 45.18994141 C49.89547478 49.46868936 49.9014724 53.71996084 50 58 C44.06 58 38.12 58 32 58 C32.05542969 56.69546875 32.11085938 55.3909375 32.16796875 54.046875 C32.53198141 42.63462784 32.53198141 42.63462784 27.45117188 32.85913086 C25.50888279 30.9563803 23.51494735 29.12990418 21.46337891 27.34570312 C19.10412836 25.17616876 17.17575494 22.69398834 15.1875 20.1875 C12.66249202 17.04486417 10.10794901 13.95735355 7.4375 10.9375 C5 8 5 8 5 6 C4.34 6 3.68 6 3 6 C0 2.53846154 0 2.53846154 0 0 Z " fill="#FFFFFF" transform="translate(738,80)"/>
<path d="M0 0 C22.44 0 44.88 0 68 0 C68 4.95 68 9.9 68 15 C60.08 15 52.16 15 44 15 C44 29.19 44 43.38 44 58 C37.73 58 31.46 58 25 58 C25 43.81 25 29.62 25 15 C16.75 15 8.5 15 0 15 C0 10.05 0 5.1 0 0 Z " fill="#FFFFFF" transform="translate(1237,80)"/>
<path d="M0 0 C22.44 0 44.88 0 68 0 C68 4.95 68 9.9 68 15 C59.75 15 51.5 15 43 15 C43.495 18.465 43.495 18.465 44 22 C44.09003195 24.77740084 44.14055024 27.52830021 44.1328125 30.3046875 C44.13376923 31.06927277 44.13472595 31.83385803 44.13571167 32.62161255 C44.13638766 34.22332848 44.13457421 35.82504725 44.13037109 37.42675781 C44.12496987 39.88873322 44.13035833 42.35052987 44.13671875 44.8125 C44.13605873 46.37239624 44.13477916 47.93229236 44.1328125 49.4921875 C44.13483673 50.23064911 44.13686096 50.96911072 44.13894653 51.72994995 C44.11498158 56.88501842 44.11498158 56.88501842 43 58 C37.06 58 31.12 58 25 58 C25 43.81 25 29.62 25 15 C16.75 15 8.5 15 0 15 C0 10.05 0 5.1 0 0 Z " fill="#FFFFFF" transform="translate(668,80)"/>
<path d="M0 0 C22.44 0 44.88 0 68 0 C68 4.95 68 9.9 68 15 C59.75 15 51.5 15 43 15 C43 29.19 43 43.38 43 58 C37.06 58 31.12 58 25 58 C25 43.81 25 29.62 25 15 C16.75 15 8.5 15 0 15 C0 10.05 0 5.1 0 0 Z " fill="#FFFFFF" transform="translate(362,80)"/>
<path d="M0 0 C6.27 0 12.54 0 19 0 C19 19.14 19 38.28 19 58 C12.73 58 6.46 58 0 58 C0 38.86 0 19.72 0 0 Z " fill="#FFFFFF" transform="translate(520,80)"/>
<path d="M0 0 C5.94 0 11.88 0 18 0 C18 19.14 18 38.28 18 58 C11.73 58 5.46 58 -1 58 C-1.02255577 50.58539637 -1.04091784 43.17081135 -1.05181217 35.75618076 C-1.05703982 32.31359652 -1.06413531 28.87103688 -1.07543945 25.4284668 C-1.08834235 21.47444957 -1.09322918 17.52044244 -1.09765625 13.56640625 C-1.10281754 12.32476212 -1.10797882 11.08311798 -1.11329651 9.80384827 C-1.11337204 8.66274094 -1.11344757 7.52163361 -1.11352539 6.34594727 C-1.115746 5.335569 -1.11796661 4.32519073 -1.12025452 3.28419495 C-1 1 -1 1 0 0 Z " fill="#FFFFFF" transform="translate(1396,80)"/>
<path d="M0 0 C5.94 0 11.88 0 18 0 C18 19.47 18 38.94 18 59 C12.06 59 6.12 59 0 59 C0 39.53 0 20.06 0 0 Z " fill="#FFFFFF" transform="translate(866,80)"/>
<path d="M0 0 C5.94 0 11.88 0 18 0 C18 19.47 18 38.94 18 59 C12.06 59 6.12 59 0 59 C0 39.53 0 20.06 0 0 Z " fill="#FFFFFF" transform="translate(642,80)"/>
</svg>
