<?xml version="1.0" encoding="UTF-8"?>
<!-- HappyRobot logo as a single compound path for MorphSVG -->
<svg version="1.1" xmlns="http://www.w3.org/2000/svg" width="188" height="148" viewBox="0 0 188 148">
<path d="M0 0 C16.83 0 33.66 0 51 0 C51.25 22.5 51.25 22.5 51.29785156 29.55664062 C51.32724374 31.42320184 51.35807352 33.28974121 51.390625 35.15625 C51.39231689 36.58469238 51.39231689 36.58469238 51.39404297 38.04199219 C51.52356229 44.13887721 52.44938061 48.93463172 56 54 C58.5840797 56.30822841 58.5840797 56.30822841 61.6875 57.9375 C62.82703125 58.59492187 63.9665625 59.25234375 65.140625 59.9296875 C67.87711637 61.42088943 70.64328124 62.84682669 73.421875 64.2578125 C74.17122314 64.64203369 74.92057129 65.02625488 75.69262695 65.42211914 C77.14896193 66.1619278 78.61337695 66.88611937 80.08666992 67.59155273 C86.93165163 71.02901016 91.53445807 75.65878279 94 83 C94.24050903 86.06892395 94.24050903 86.06892395 94.22705078 89.53442383 C94.22689972 90.83539505 94.22674866 92.13636627 94.22659302 93.47676086 C94.21638124 94.88685257 94.20594927 96.29694269 94.1953125 97.70703125 C94.19157959 99.15719914 94.18873393 100.60736957 94.18673706 102.05754089 C94.17912249 105.86338334 94.15949289 109.6690717 94.1373291 113.47485352 C94.11321463 118.04705369 94.10407931 122.61930556 94.09242249 127.19155121 C94.07306704 134.12780778 94.0347296 141.06372665 94 148 C77.17 148 60.34 148 43 148 C42.97873047 139.3684375 42.97873047 139.3684375 42.95703125 130.5625 C42.93696388 126.90749127 42.91543683 123.2526071 42.88867188 119.59765625 C42.84636813 113.80187129 42.80934407 108.00640223 42.80444336 102.21044922 C42.80015116 97.53524314 42.77161227 92.86074529 42.72656822 88.1857605 C42.71362261 86.4061191 42.7092751 84.62639282 42.71384621 82.84671021 C43.13787185 70.92383044 43.13787185 70.92383044 38.39900208 60.38494873 C34.75639323 56.77893086 31.07272567 54.35569335 26.5078125 52.046875 C25.47269531 51.50933594 24.43757813 50.97179688 23.37109375 50.41796875 C21.21954396 49.3124191 19.06330887 48.21593719 16.90234375 47.12890625 C9.6320907 43.32669938 2.71528844 39.14586532 0 31 C-0.08397157 28.64319787 -0.10728187 26.28405919 -0.09765625 23.92578125 C-0.09515869 22.67450439 -0.09266113 21.42322754 -0.09008789 20.1340332 C-0.08098389 18.54292725 -0.07187988 16.95182129 -0.0625 15.3125 C-0.041875 10.259375 -0.02125 5.20625 0 0 Z M93 0 C109.83 0 126.66 0 144 0 C144.03738281 5.45402344 144.07476562 10.90804688 144.11328125 16.52734375 C144.14357959 19.99547349 144.17473961 23.46355308 144.20898438 26.93164062 C144.2631829 32.42876572 144.31429761 37.92579159 144.34643555 43.4230957 C144.37256462 47.85827544 144.41303404 52.29311945 144.46318626 56.72809029 C144.47979031 58.41479865 144.49134464 60.10156499 144.49761391 61.78834343 C144.23387495 76.16897259 144.23387495 76.16897259 150.28515625 88.82421875 C153.21632255 91.17336929 156.14465496 93.0042903 159.4375 94.8125 C160.04078125 95.15087891 160.6440625 95.48925781 161.265625 95.83789062 C164.42609866 97.60788674 167.61073528 99.3251746 170.81640625 101.01171875 C178.6426747 105.19666964 185.06194641 109.18583922 188 118 C188.08378628 120.2838517 188.10729915 122.570101 188.09765625 124.85546875 C188.09515869 126.06614014 188.09266113 127.27681152 188.09008789 128.52416992 C188.08098389 130.06306885 188.07187988 131.60196777 188.0625 133.1875 C188.041875 138.075625 188.02125 142.96375 188 148 C171.17 148 154.34 148 137 148 C136.75 126 136.75 126 136.70214844 119.1015625 C136.67275512 117.27601637 136.64192514 115.45049257 136.609375 113.625 C136.60768311 112.22894531 136.60768311 112.22894531 136.60595703 110.8046875 C136.45444159 103.8275861 135.08644822 98.32519091 130.24829102 93.11279297 C123.83075395 88.68875917 117.00704649 85.163895 110.04492188 81.67578125 C102.85407026 77.91410732 96.98514527 73.85096866 93.82836914 66.13696289 C92.29395782 60.16417293 92.75586515 53.87297978 92.8046875 47.75390625 C92.80842305 46.37385769 92.81126746 44.99380645 92.81326294 43.61375427 C92.82085676 40.00192798 92.84046806 36.39026551 92.8626709 32.77850342 C92.88322154 29.08478043 92.89239427 25.39102988 92.90234375 21.69726562 C92.92265424 14.46469962 92.96181095 7.232582 93 0 Z" fill="#FFFFFF"/>
</svg>
